<svg width="40" height="40" viewBox="0 0 40 40" fill="none" xmlns="http://www.w3.org/2000/svg">
<rect y="16.6667" width="23.3333" height="23.3333" fill="#7595FD"/>
<path d="M18.3333 10H23.3333L28.8167 4.50002C28.9716 4.3438 29.1559 4.21981 29.359 4.1352C29.5621 4.05058 29.78 4.00702 30 4.00702C30.22 4.00702 30.4379 4.05058 30.641 4.1352C30.8441 4.21981 31.0284 4.3438 31.1833 4.50002L35.4833 8.81668C35.7938 9.12895 35.968 9.55137 35.968 9.99168C35.968 10.432 35.7938 10.8544 35.4833 11.1667L31.6667 15H18.3333V18.3333C18.3333 18.7754 18.1577 19.1993 17.8452 19.5119C17.5326 19.8244 17.1087 20 16.6667 20C16.2246 20 15.8007 19.8244 15.4882 19.5119C15.1756 19.1993 15 18.7754 15 18.3333V13.3333C15 12.4493 15.3512 11.6014 15.9763 10.9763C16.6014 10.3512 17.4493 10 18.3333 10ZM8.33333 18.3333V25L4.51667 28.8167C4.20625 29.129 4.03201 29.5514 4.03201 29.9917C4.03201 30.432 4.20625 30.8544 4.51667 31.1667L8.81667 35.4833C8.97161 35.6396 9.15594 35.7636 9.35904 35.8482C9.56214 35.9328 9.77998 35.9763 10 35.9763C10.22 35.9763 10.4379 35.9328 10.641 35.8482C10.8441 35.7636 11.0284 35.6396 11.1833 35.4833L18.3333 28.3333H25C25.442 28.3333 25.866 28.1578 26.1785 27.8452C26.4911 27.5326 26.6667 27.1087 26.6667 26.6667V25H28.3333C28.7754 25 29.1993 24.8244 29.5118 24.5119C29.8244 24.1993 30 23.7754 30 23.3333V21.6667H31.6667C32.1087 21.6667 32.5326 21.4911 32.8452 21.1785C33.1577 20.866 33.3333 20.442 33.3333 20V18.3333H21.6667V20C21.6667 20.8841 21.3155 21.7319 20.6904 22.357C20.0652 22.9822 19.2174 23.3333 18.3333 23.3333H15C14.1159 23.3333 13.2681 22.9822 12.643 22.357C12.0179 21.7319 11.6667 20.8841 11.6667 20V15L8.33333 18.3333Z" fill="#292E3D"/>
</svg>
