<svg width="41" height="40" fill="none" xmlns="http://www.w3.org/2000/svg"><g clip-path="url(#clip0_308_199)"><path fill="#7595FD" d="M.5 16.667h23.333V40H.5z"/><path d="M11.1 31.3l.417 3.7 2.7-2.567 4.616-12.666a6.526 6.526 0 01-2.95-1.634L11.1 31.3zm14.017-13.167a6.614 6.614 0 01-2.95 1.634l4.616 12.666 2.7 2.567.434-3.7-4.8-13.167zm.283-3.8c.5-2.6-1-4.9-3.233-5.7V6.667C22.167 5.75 21.417 5 20.5 5s-1.667.75-1.667 1.667v1.966c-1.933.7-3.333 2.534-3.333 4.7 0 3.067 2.767 5.5 5.933 4.917 1.967-.367 3.584-1.95 3.967-3.917zM20.5 15c-.917 0-1.667-.75-1.667-1.667 0-.916.75-1.666 1.667-1.666s1.667.75 1.667 1.666c0 .917-.75 1.667-1.667 1.667z" fill="#292E3D"/></g><defs><clipPath id="clip0_308_199"><path fill="#fff" transform="translate(.5)" d="M0 0h40v40H0z"/></clipPath></defs></svg>