<svg width="40" height="40" fill="none" xmlns="http://www.w3.org/2000/svg"><path fill="#7595FD" d="M0 16.667h23.333V40H0z"/><path d="M18.333 10h5l5.484-5.5a1.666 1.666 0 012.366 0l4.3 4.317a1.666 1.666 0 010 2.35L31.667 15H18.333v3.333a1.667 1.667 0 01-3.333 0v-5A3.333 3.333 0 0118.333 10zm-10 8.333V25l-3.816 3.817a1.667 1.667 0 000 2.35l4.3 4.316a1.665 1.665 0 002.366 0l7.15-7.15H25a1.666 1.666 0 001.667-1.666V25h1.666A1.667 1.667 0 0030 23.333v-1.666h1.667A1.667 1.667 0 0033.333 20v-1.667H21.667V20a3.333 3.333 0 01-3.334 3.333H15A3.333 3.333 0 0111.667 20v-5l-3.334 3.333z" fill="#292E3D"/></svg>