<svg width="41" height="40" fill="none" xmlns="http://www.w3.org/2000/svg"><g clip-path="url(#clip0_308_93)"><path fill="#7595FD" d="M.5 16.667h23.333V40H.5z"/><path d="M32.152 3.333H15.517a3.348 3.348 0 00-3.35 3.35v9.395L4.33 23.815a1.667 1.667 0 001.17 2.852V35a1.667 1.667 0 001.667 1.667h26.666A1.667 1.667 0 0035.5 35V6.682a3.346 3.346 0 00-3.348-3.349zM18.703 25.185v8.148h-9.87v-9.28l4.979-4.915 4.891 5.005v1.042zM22.167 15h-3.334v-3.333h3.334V15zm6.666 13.333H25.5V25h3.333v3.333zm0-6.666H25.5v-3.334h3.333v3.334zm0-6.667H25.5v-3.333h3.333V15z" fill="#292E3D"/><path d="M12.167 25H15.5v3.333h-3.333V25z" fill="#14171F"/></g><defs><clipPath id="clip0_308_93"><path fill="#fff" transform="translate(.5)" d="M0 0h40v40H0z"/></clipPath></defs></svg>