<svg width="40" height="40" fill="none" xmlns="http://www.w3.org/2000/svg"><path fill="#7595FD" d="M0 16.667h23.333V40H0z"/><path d="M35 23.333c0-.916-.75-1.666-1.667-1.666H30V25h3.333C34.25 25 35 24.25 35 23.333zm-1.667 5H30v3.334h3.333c.917 0 1.667-.75 1.667-1.667s-.75-1.667-1.667-1.667zm-13.333-5h-3.333V30H20c0 1.833 1.5 3.333 3.333 3.333h5V20h-5A3.343 3.343 0 0020 23.333z" fill="#fff"/><path d="M8.333 21.667c0-1.834 1.5-3.334 3.334-3.334h2.5A5.84 5.84 0 0020 12.5a5.84 5.84 0 00-5.833-5.833H8.333c-.916 0-1.666.75-1.666 1.666 0 .917.75 1.667 1.666 1.667h5.834c1.383 0 2.5 1.117 2.5 2.5s-1.117 2.5-2.5 2.5h-2.5A6.665 6.665 0 005 21.667a6.665 6.665 0 006.667 6.666H15V25h-3.333a3.343 3.343 0 01-3.334-3.333z" fill="#fff"/></svg>