<svg width="41" height="40" fill="none" xmlns="http://www.w3.org/2000/svg"><g clip-path="url(#clip0_308_99)"><path fill="#7595FD" d="M.5 16.667h23.333V40H.5z"/><path d="M33 5a4.17 4.17 0 00-4.167 4.167c0 .595.13 1.16.357 1.675l-3.258 3.665a6.629 6.629 0 00-3.765-1.174c-1.234 0-2.374.36-3.365.944l-3.79-3.789-.039.039a4.942 4.942 0 00.527-2.194 5 5 0 10-5 5c.792 0 1.528-.2 2.193-.526l-.038.038 3.79 3.788A6.593 6.593 0 0015.5 20c0 1.662.633 3.165 1.642 4.335l-4.295 4.293a4.12 4.12 0 00-1.514-.295A4.171 4.171 0 007.167 32.5a4.171 4.171 0 004.166 4.167A4.171 4.171 0 0015.5 32.5c0-.535-.11-1.043-.295-1.515l4.73-4.73c.702.25 1.445.412 2.232.412A6.673 6.673 0 0028.833 20c0-1.06-.271-2.048-.713-2.94l3.528-3.972a4.14 4.14 0 001.352.245 4.17 4.17 0 004.167-4.166A4.17 4.17 0 0033 5zM22.167 23.333A3.337 3.337 0 0118.833 20a3.337 3.337 0 013.334-3.333A3.337 3.337 0 0125.5 20a3.337 3.337 0 01-3.333 3.333z" fill="#fff"/></g><defs><clipPath id="clip0_308_99"><path fill="#fff" transform="translate(.5)" d="M0 0h40v40H0z"/></clipPath></defs></svg>