<svg width="41" height="40" fill="none" xmlns="http://www.w3.org/2000/svg"><g clip-path="url(#clip0_308_232)"><path fill="#7595FD" d="M.5 16.667h23.333V40H.5z"/><path d="M30.5 26.667h-3.333V25H13.833v1.667H10.5V25H3.833v8.333h33.334V25H30.5v1.667zm3.333-13.334h-5V10c0-1.833-1.5-3.333-3.333-3.333h-10A3.343 3.343 0 0012.167 10v3.333h-5a3.343 3.343 0 00-3.334 3.334v6.666H10.5V20h3.333v3.333h13.334V20H30.5v3.333h6.667v-6.666c0-1.834-1.5-3.334-3.334-3.334zm-8.333 0h-10V10h10v3.333z" fill="#fff"/></g><defs><clipPath id="clip0_308_232"><path fill="#fff" transform="translate(.5)" d="M0 0h40v40H0z"/></clipPath></defs></svg>