<svg width="43" height="28" viewBox="0 0 43 28" fill="none" xmlns="http://www.w3.org/2000/svg">
<path d="M7 14C7 15.1046 7.89543 16 9 16H41C42.1046 16 43 15.1046 43 14C43 12.8954 42.1046 12 41 12H9C7.89543 12 7 12.8954 7 14Z" fill="white"/>
<path d="M18 26C18 27.1046 18.8954 28 20 28H41C42.1046 28 43 27.1046 43 26C43 24.8954 42.1046 24 41 24H20C18.8954 24 18 24.8954 18 26Z" fill="white"/>
<path d="M0 2C0 3.10457 0.895431 4 2 4H41C42.1046 4 43 3.10457 43 2C43 0.895432 42.1046 0 41 0H2C0.895432 0 0 0.895432 0 2Z" fill="white"/>
</svg>
